<svg width="74" height="74" viewBox="0 0 74 74" fill="none" xmlns="http://www.w3.org/2000/svg">
<g id="24 / notifications / alert-triangle">
<path id="icon" fill-rule="evenodd" clip-rule="evenodd" d="M69.1948 49.189L47.595 12.2643C45.4265 8.50508 41.3847 6.17181 37.0138 6.1667C32.6423 6.16158 28.5991 8.48522 26.4037 12.2645L4.79588 49.2027C2.55531 52.9701 2.50462 57.6908 4.67487 61.5409C6.84692 65.3941 10.9139 67.7921 15.3377 67.828L58.6211 67.8283C63.0909 67.7848 67.1502 65.3942 69.3219 61.5444C71.4911 57.6991 71.4426 52.9888 69.1948 49.189ZM10.1074 52.3356L31.7312 15.3702C32.8263 13.4851 34.8348 12.3308 37.0065 12.3334C39.1781 12.3359 41.1858 13.4949 42.2627 15.3619L63.8796 52.3157C65.0127 54.2312 65.0369 56.5893 63.9509 58.5145C62.8633 60.4425 60.8301 61.6399 58.5911 61.6617L15.3628 61.6615C13.1718 61.6436 11.1346 60.4424 10.0468 58.5127C8.96027 56.5851 8.98564 54.2218 10.1074 52.3356ZM37.001 55.4949C38.7044 55.4949 40.0854 54.1145 40.0854 52.4116C40.0854 50.7087 38.7044 49.3283 37.001 49.3283C35.2976 49.3283 33.9167 50.7087 33.9167 52.4116C33.9167 54.1145 35.2976 55.4949 37.001 55.4949ZM40.0945 24.6616H33.9258V46.2449H40.0945V24.6616Z" fill="#A45050"/>
</g>
</svg>
