<svg width="47" height="47" viewBox="0 0 47 47" fill="none" xmlns="http://www.w3.org/2000/svg">
<path d="M42.1435 36.7125C45.1194 34.0603 46.8044 30.5251 46.8044 26.8565C46.8044 22.9578 44.9793 19.3115 41.665 16.5889C38.4395 13.94 34.17 12.481 29.6424 12.481C25.1149 12.481 20.8454 13.94 17.6203 16.5891C14.3061 19.3115 12.481 22.9578 12.481 26.8565C12.481 30.7553 14.3061 34.4015 17.6203 37.1242C20.8454 39.7733 25.1149 41.2322 29.6424 41.2322C30.2457 41.2322 30.8527 41.2056 31.4546 41.1526L32.483 42.044C36.0256 45.1138 40.5561 46.8038 45.2438 46.8039H46.8039V43.4831L46.347 43.0263C44.5445 41.2184 43.1161 39.0729 42.1435 36.7125ZM34.5265 39.6858L32.4632 37.8974L31.7752 37.9818C31.0675 38.0683 30.3553 38.1117 29.6424 38.1117C21.9003 38.1117 15.6012 33.0627 15.6012 26.8565C15.6012 20.6504 21.9003 15.6012 29.6424 15.6012C37.3846 15.6012 43.6837 20.6503 43.6837 26.8565C43.6837 29.9485 42.1411 32.8352 39.3401 34.9846L38.4415 35.6741L38.8561 36.8476C39.7058 39.2444 40.9547 41.4801 42.5499 43.4604C39.5791 42.9645 36.8027 41.6583 34.5265 39.6858Z" fill="#D2988D"/>
<path d="M4.30841 29.3965C5.76882 27.5478 6.91546 25.4717 7.70249 23.2512L8.11397 22.0835L7.21621 21.3945C4.5749 19.3677 3.12027 16.6474 3.12027 13.7347C3.12027 7.8819 9.06917 3.12027 16.3814 3.12027C21.7608 3.12027 26.4021 5.69742 28.48 9.39007C28.8658 9.37134 29.2533 9.36081 29.6426 9.36081C30.4244 9.36081 31.1991 9.39874 31.9666 9.47461C31.1636 7.39426 29.769 5.49519 27.8517 3.92043C24.7742 1.39232 20.701 0 16.3814 0C12.0618 0 7.98867 1.39232 4.91092 3.92043C1.74404 6.52185 0 10.0073 0 13.7347C0 17.2256 1.59446 20.5891 4.41226 23.1193C3.49269 25.3322 2.14904 27.3439 0.457022 29.0409L0 29.4978V32.7628H1.56014C4.44513 32.7625 7.29044 32.0906 9.87088 30.8005C9.58792 29.728 9.42213 28.628 9.37641 27.5198C7.81021 28.4377 6.09473 29.073 4.30841 29.3965Z" fill="#D2988D"/>
</svg>
