<svg width="47" height="48" viewBox="0 0 47 48" fill="none" xmlns="http://www.w3.org/2000/svg">
<path d="M42.2553 36.9854C45.2312 34.3332 46.9162 30.798 46.9162 27.1295C46.9162 23.2307 45.0911 19.5845 41.7769 16.8618C38.5513 14.2129 34.2818 12.7539 29.7543 12.7539C25.2268 12.7539 20.9572 14.2129 17.7322 16.862C14.4179 19.5845 12.5928 23.2307 12.5928 27.1295C12.5928 31.0283 14.4179 34.6745 17.7322 37.3971C20.9572 40.0462 25.2268 41.5052 29.7543 41.5052C30.3575 41.5052 30.9645 41.4785 31.5665 41.4256L32.5948 42.3169C36.1374 45.3868 40.6679 47.0767 45.3556 47.0769H46.9158V43.756L46.4588 43.2992C44.6563 41.4914 43.2279 39.3459 42.2553 36.9854ZM34.6384 39.9588L32.575 38.1704L31.887 38.2547C31.1794 38.3412 30.4671 38.3847 29.7543 38.3847C22.0121 38.3847 15.713 33.3356 15.713 27.1295C15.713 20.9234 22.0121 15.8742 29.7543 15.8742C37.4964 15.8742 43.7955 20.9233 43.7955 27.1295C43.7955 30.2215 42.2529 33.1081 39.4519 35.2576L38.5533 35.9471L38.9679 37.1206C39.8176 39.5173 41.0665 41.7531 42.6618 43.7333C39.6909 43.2374 36.9145 41.9313 34.6384 39.9588Z" fill="white"/>
<path d="M4.42023 29.6694C5.88064 27.8208 7.02728 25.7447 7.8143 23.5241L8.22579 22.3565L7.32803 21.6675C4.68672 19.6407 3.23209 16.9204 3.23209 14.0077C3.23209 8.15485 9.18098 3.39322 16.4932 3.39322C21.8726 3.39322 26.5139 5.97037 28.5918 9.66301C28.9776 9.64429 29.3651 9.63376 29.7544 9.63376C30.5362 9.63376 31.3109 9.67169 32.0784 9.74755C31.2754 7.66721 29.8809 5.76814 27.9636 4.19337C24.886 1.66527 20.8129 0.272949 16.4932 0.272949C12.1736 0.272949 8.10049 1.66527 5.02273 4.19337C1.85585 6.7948 0.111816 10.2802 0.111816 14.0077C0.111816 17.4985 1.70627 20.8621 4.52407 23.3922C3.60451 25.6052 2.26086 27.6168 0.568839 29.3138L0.111816 29.7707V33.0358H1.67195C4.55694 33.0354 7.40226 32.3636 9.9827 31.0734C9.69974 30.001 9.53395 28.901 9.48823 27.7928C7.92203 28.7107 6.20655 29.3459 4.42023 29.6694Z" fill="white"/>
</svg>
