<svg width="30" height="30" viewBox="0 0 30 30" fill="none" xmlns="http://www.w3.org/2000/svg">
<path fill-rule="evenodd" clip-rule="evenodd" d="M15 30C6.71573 30 0 23.2843 0 15C0 6.71573 6.71573 0 15 0C23.2843 0 30 6.71573 30 15C30 23.2843 23.2843 30 15 30ZM15 27.2727C21.778 27.2727 27.2727 21.778 27.2727 15C27.2727 8.22196 21.778 2.72727 15 2.72727C8.22196 2.72727 2.72727 8.22196 2.72727 15C2.72727 21.778 8.22196 27.2727 15 27.2727ZM15 16.9285L10.5097 21.4188L8.58122 19.4903L13.0715 15L8.58122 10.5097L10.5097 8.58122L15 13.0715L19.4903 8.58122L21.4188 10.5097L16.9285 15L21.4188 19.4903L19.4903 21.4188L15 16.9285Z" fill="#A45050"/>
</svg>
