<svg width="30" height="30" viewBox="0 0 30 30" fill="none" xmlns="http://www.w3.org/2000/svg">
<path fill-rule="evenodd" clip-rule="evenodd" d="M13.8585 22.5L6.25 27.2553V22.5H3.75C2.36929 22.5 1.25 21.3807 1.25 20V5C1.25 3.61929 2.36929 2.5 3.75 2.5H23.75C25.1307 2.5 26.25 3.61929 26.25 5V20C26.25 21.3807 25.1307 22.5 23.75 22.5H13.8585ZM8.75 22.7447L13.1415 20H23.75V5H3.75V20H8.75V22.7447ZM17.8661 7.86612L12.5 13.2322L9.63388 10.3661L7.86612 12.1339L12.5 16.7678L19.6339 9.63388L17.8661 7.86612Z" fill="#432323"/>
</svg>
