<svg width="30" height="30" viewBox="0 0 30 30" fill="none" xmlns="http://www.w3.org/2000/svg">
<path fill-rule="evenodd" clip-rule="evenodd" d="M27 16.5V13.5H30V16.5H27ZM27 21V18H30V21H27ZM27 30V27H30V30H27ZM27 25.5V22.5H30V25.5H27ZM22.5 30V27H25.5V30H22.5ZM18 30V27H21V30H18ZM9 30V27H12V30H9ZM13.5 30V27H16.5V30H13.5ZM4.5 30V27H7.5V30H4.5ZM4.5 25.5V22.5H7.5V25.5H4.5ZM22.5 12V9H25.5V12H22.5ZM18 12V9H21V12H18ZM27 12V9H30V12H27ZM6.99452 8.24589C6.28056 8.72229 5.42271 9 4.5 9C2.01472 9 0 6.98528 0 4.5C0 2.01472 2.01472 0 4.5 0C6.98528 0 9 2.01472 9 4.5C9 4.969 8.92825 5.42124 8.79513 5.84635L12.5 8.625L21.6 1.8L23.4 4.2L15 10.5L23.4 16.8L21.6 19.2L12.5 12.375L8.79513 15.1537C8.92825 15.5788 9 16.031 9 16.5C9 18.9853 6.98528 21 4.5 21C2.01472 21 0 18.9853 0 16.5C0 14.0147 2.01472 12 4.5 12C5.42271 12 6.28056 12.2777 6.99452 12.7541L10 10.5L6.99452 8.24589ZM4.5 18C5.32843 18 6 17.3284 6 16.5C6 15.6716 5.32843 15 4.5 15C3.67157 15 3 15.6716 3 16.5C3 17.3284 3.67157 18 4.5 18ZM4.5 6C5.32843 6 6 5.32843 6 4.5C6 3.67157 5.32843 3 4.5 3C3.67157 3 3 3.67157 3 4.5C3 5.32843 3.67157 6 4.5 6Z" fill="#432323"/>
</svg>
