<svg width="30" height="30" viewBox="0 0 30 30" fill="none" xmlns="http://www.w3.org/2000/svg">
<path fill-rule="evenodd" clip-rule="evenodd" d="M20.4775 8.75L22.7804 13.3559L26.25 15.669V20H24.7866C24.2718 18.5435 22.8828 17.5 21.25 17.5C19.6172 17.5 18.2282 18.5435 17.7134 20H12.2866C11.7718 18.5435 10.3828 17.5 8.75 17.5C7.11723 17.5 5.72818 18.5435 5.21338 20H3.75V8.75H20.4775ZM26.25 22.5H24.7866C24.2718 23.9565 22.8828 25 21.25 25C19.6172 25 18.2282 23.9565 17.7134 22.5H12.2866C11.7718 23.9565 10.3828 25 8.75 25C7.11723 25 5.72818 23.9565 5.21338 22.5H3.75C2.36929 22.5 1.25 21.3807 1.25 20V8.75C1.25 7.36929 2.36929 6.25 3.75 6.25H20.4775C21.4244 6.25 22.29 6.78501 22.7135 7.63197L24.7196 11.6441L28.75 14.331V20C28.75 21.3807 27.6307 22.5 26.25 22.5ZM10 21.25C10 21.9404 9.44036 22.5 8.75 22.5C8.05964 22.5 7.5 21.9404 7.5 21.25C7.5 20.5596 8.05964 20 8.75 20C9.44036 20 10 20.5596 10 21.25ZM22.5 21.25C22.5 21.9404 21.9404 22.5 21.25 22.5C20.5596 22.5 20 21.9404 20 21.25C20 20.5596 20.5596 20 21.25 20C21.9404 20 22.5 20.5596 22.5 21.25Z" fill="#432323"/>
</svg>
