<svg width="139" height="139" viewBox="0 0 139 139" fill="none" xmlns="http://www.w3.org/2000/svg">
<g id="24 / basic / image">
<path id="icon" fill-rule="evenodd" clip-rule="evenodd" d="M23.1668 11.5833H115.833C122.231 11.5833 127.417 16.7693 127.417 23.1666V115.833C127.417 122.231 122.231 127.417 115.833 127.417H23.1668C16.7695 127.417 11.5835 122.231 11.5835 115.833V23.1666C11.5835 16.7693 16.7695 11.5833 23.1668 11.5833ZM23.1668 23.1666V90.2676L46.3335 67.1009L66.6043 87.3718L104.25 49.7259L115.833 61.3093V23.1666H23.1668ZM23.1668 115.833V106.649L46.3335 83.4822L78.6845 115.833H23.1668ZM115.833 115.833H95.0658L74.795 95.5624L104.25 66.1072L115.833 77.6906V115.833ZM81.0835 46.3333C81.0835 36.7373 73.3044 28.9583 63.7085 28.9583C54.1125 28.9583 46.3335 36.7373 46.3335 46.3333C46.3335 55.9292 54.1125 63.7083 63.7085 63.7083C73.3044 63.7083 81.0835 55.9292 81.0835 46.3333ZM57.9168 46.3333C57.9168 43.1346 60.5098 40.5416 63.7085 40.5416C66.9071 40.5416 69.5002 43.1346 69.5002 46.3333C69.5002 49.5319 66.9071 52.1249 63.7085 52.1249C60.5098 52.1249 57.9168 49.5319 57.9168 46.3333Z" fill="#707070" fill-opacity="0.4"/>
</g>
</svg>
