<svg width="213" height="213" viewBox="0 0 213 213" fill="none" xmlns="http://www.w3.org/2000/svg">
<path fill-rule="evenodd" clip-rule="evenodd" d="M106.08 212.16C47.4936 212.16 0 164.666 0 106.08C0 47.4936 47.4936 0 106.08 0C164.666 0 212.16 47.4936 212.16 106.08C212.16 164.666 164.666 212.16 106.08 212.16ZM106.08 192.873C154.014 192.873 192.873 154.014 192.873 106.08C192.873 58.1457 154.014 19.2873 106.08 19.2873C58.1457 19.2873 19.2873 58.1457 19.2873 106.08C19.2873 154.014 58.1457 192.873 106.08 192.873ZM106.083 154.282C100.755 154.282 96.4364 149.965 96.4364 144.639C96.4364 139.313 100.755 134.995 106.083 134.995C111.411 134.995 115.73 139.313 115.73 144.639C115.73 149.965 111.411 154.282 106.083 154.282ZM115.724 125.367H96.4364C96.4364 108.957 102.46 101.93 116.233 95.0436C124.158 91.081 125.367 89.6699 125.367 81.9709C125.367 72.8712 118.396 67.5055 106.08 67.5055C95.4279 67.5055 86.7927 76.1407 86.7927 86.7927H67.5055C67.5055 65.4886 84.7759 48.2182 106.08 48.2182C128.109 48.2182 144.655 60.9538 144.655 81.9709C144.655 98.381 138.631 105.408 124.858 112.295C116.933 116.257 115.724 117.668 115.724 125.367Z" fill="white"/>
</svg>
