<svg width="27" height="33" viewBox="0 0 27 33" fill="none" xmlns="http://www.w3.org/2000/svg">
<path fill-rule="evenodd" clip-rule="evenodd" d="M22.5 4.5H24C25.6569 4.5 27 5.84315 27 7.5V30C27 31.6569 25.6569 33 24 33H3C1.34315 33 0 31.6569 0 30V7.5C0 5.84315 1.34315 4.5 3 4.5H4.5C4.5 2.84315 5.84315 1.5 7.5 1.5H8.99388C10.1223 0.544462 11.7587 0 13.5 0C15.2413 0 16.8777 0.544462 18.0061 1.5H19.5C21.1569 1.5 22.5 2.84315 22.5 4.5ZM4.90135 7.5H3V30H24V7.5H22.0987C21.5799 8.3967 20.6104 9 19.5 9H7.5C6.38958 9 5.42006 8.3967 4.90135 7.5V7.5ZM7.5 22.5V19.5H16.5V22.5H7.5ZM7.5 16.5V13.5H19.5V16.5H7.5ZM10.735 3.98307L10.2864 4.5H9.60202H7.5V6H19.5V4.5H16.7136L16.265 3.98307C15.7722 3.41511 14.7159 3 13.5 3C12.2841 3 11.2278 3.41511 10.735 3.98307Z" fill="#D2988D"/>
</svg>
