<svg width="26" height="26" viewBox="0 0 26 26" fill="none" xmlns="http://www.w3.org/2000/svg">
<path fill-rule="evenodd" clip-rule="evenodd" d="M4.86211 5.90909H8.27273V8.27273H1.18182V1.17143H3.54545V3.84853C6.18927 1.07611 9.20238 0 13 0C20.1797 0 26 5.8203 26 13C26 20.1797 20.1797 26 13 26C5.8203 26 0 20.1797 0 13H2.36364C2.36364 18.8743 7.1257 23.6364 13 23.6364C18.8743 23.6364 23.6364 18.8743 23.6364 13C23.6364 7.1257 18.8743 2.36364 13 2.36364C9.64271 2.36364 7.14368 3.2989 4.86211 5.90909ZM14.1818 11.8182H18.9091V14.1818H11.8182V5.90909H14.1818V11.8182Z" fill="#432323"/>
</svg>
